
    <svg version="1.1" xmlns="http://www.w3.org/2000/svg" xmlns:xlink="http://www.w3.org/1999/xlink" width="3343"
    height="2248">
    <image width="3343" height="2248"
        xlink:href="./1000400_1.png?domain=170uat202310091346&amp;workSpaceId=ws170uat202320231009142346"></image>
    
    <a onclick="javascript:pcsGlobal.canvasClickHandler(this)" id="1000134">
    <polygon points="1966,885 1887,885 1887,806 1966,806 1966,885" fill="transparent"
        onfocusin="evt.target.setAttribute('stroke', 'red')"
        onfocusout="evt.target.setAttribute('stroke','transparent')" />
    </a>
    <a onclick="javascript:pcsGlobal.canvasClickHandler(this)" id="1000134">
    <polygon points="2049,928 1970,928 1970,849 2049,849 2049,928" fill="transparent"
        onfocusin="evt.target.setAttribute('stroke', 'red')"
        onfocusout="evt.target.setAttribute('stroke','transparent')" />
    </a>
    <a onclick="javascript:pcsGlobal.canvasClickHandler(this)" id="1000134">
    <polygon points="1959,974 1880,974 1880,895 1959,895 1959,974" fill="transparent"
        onfocusin="evt.target.setAttribute('stroke', 'red')"
        onfocusout="evt.target.setAttribute('stroke','transparent')" />
    </a>
    <a onclick="javascript:pcsGlobal.canvasClickHandler(this)" id="1000134">
    <polygon points="2042,1016 1963,1016 1963,937 2042,937 2042,1016" fill="transparent"
        onfocusin="evt.target.setAttribute('stroke', 'red')"
        onfocusout="evt.target.setAttribute('stroke','transparent')" />
    </a>
    <a onclick="javascript:pcsGlobal.canvasClickHandler(this)" id="1000114">
    <polygon points="2221,716 2142,716 2142,637 2221,637 2221,716" fill="transparent"
        onfocusin="evt.target.setAttribute('stroke', 'red')"
        onfocusout="evt.target.setAttribute('stroke','transparent')" />
    </a>
    <a onclick="javascript:pcsGlobal.canvasClickHandler(this)" id="1000114">
    <polygon points="2301,786 2222,786 2222,707 2301,707 2301,786" fill="transparent"
        onfocusin="evt.target.setAttribute('stroke', 'red')"
        onfocusout="evt.target.setAttribute('stroke','transparent')" />
    </a>
    <a onclick="javascript:pcsGlobal.canvasClickHandler(this)" id="1000114">
    <polygon points="2208,832 2129,832 2129,753 2208,753 2208,832" fill="transparent"
        onfocusin="evt.target.setAttribute('stroke', 'red')"
        onfocusout="evt.target.setAttribute('stroke','transparent')" />
    </a>
    <a onclick="javascript:pcsGlobal.canvasClickHandler(this)" id="1000114">
    <polygon points="2294,866 2215,866 2215,787 2294,787 2294,866" fill="transparent"
        onfocusin="evt.target.setAttribute('stroke', 'red')"
        onfocusout="evt.target.setAttribute('stroke','transparent')" />
    </a>
    <a onclick="javascript:pcsGlobal.canvasClickHandler(this)" id="1000111">
    <polygon points="1825,1508 1746,1508 1746,1429 1825,1429 1825,1508" fill="transparent"
        onfocusin="evt.target.setAttribute('stroke', 'red')"
        onfocusout="evt.target.setAttribute('stroke','transparent')" />
    </a>
    <a onclick="javascript:pcsGlobal.canvasClickHandler(this)" id="1000129">
    <polygon points="2932,482 2853,482 2853,403 2932,403 2932,482" fill="transparent"
        onfocusin="evt.target.setAttribute('stroke', 'red')"
        onfocusout="evt.target.setAttribute('stroke','transparent')" />
    </a>
    <a onclick="javascript:pcsGlobal.canvasClickHandler(this)" id="1000130">
    <polygon points="2559,682 2480,682 2480,603 2559,603 2559,682" fill="transparent"
        onfocusin="evt.target.setAttribute('stroke', 'red')"
        onfocusout="evt.target.setAttribute('stroke','transparent')" />
    </a>
    <a onclick="javascript:pcsGlobal.canvasClickHandler(this)" id="1000101">
    <polygon points="1736,1170 1657,1170 1657,1091 1736,1091 1736,1170" fill="transparent"
        onfocusin="evt.target.setAttribute('stroke', 'red')"
        onfocusout="evt.target.setAttribute('stroke','transparent')" />
    </a>
    <a onclick="javascript:pcsGlobal.canvasClickHandler(this)" id="1000111">
    <polygon points="1433,736 1354,736 1354,657 1433,657 1433,736" fill="transparent"
        onfocusin="evt.target.setAttribute('stroke', 'red')"
        onfocusout="evt.target.setAttribute('stroke','transparent')" />
    </a>
    <a onclick="javascript:pcsGlobal.canvasClickHandler(this)" id="1000112">
    <polygon points="1436,951 1357,951 1357,872 1436,872 1436,951" fill="transparent"
        onfocusin="evt.target.setAttribute('stroke', 'red')"
        onfocusout="evt.target.setAttribute('stroke','transparent')" />
    </a>
    <a onclick="javascript:pcsGlobal.canvasClickHandler(this)" id="1000111">
    <polygon points="1047,1051 968,1051 968,972 1047,972 1047,1051" fill="transparent"
        onfocusin="evt.target.setAttribute('stroke', 'red')"
        onfocusout="evt.target.setAttribute('stroke','transparent')" />
    </a>
    <a onclick="javascript:pcsGlobal.canvasClickHandler(this)" id="1000135">
    <polygon points="1398,1174 1319,1174 1319,1095 1398,1095 1398,1174" fill="transparent"
        onfocusin="evt.target.setAttribute('stroke', 'red')"
        onfocusout="evt.target.setAttribute('stroke','transparent')" />
    </a>
    <a onclick="javascript:pcsGlobal.canvasClickHandler(this)" id="1000135">
    <polygon points="1513,1235 1434,1235 1434,1156 1513,1156 1513,1235" fill="transparent"
        onfocusin="evt.target.setAttribute('stroke', 'red')"
        onfocusout="evt.target.setAttribute('stroke','transparent')" />
    </a>
    <a onclick="javascript:pcsGlobal.canvasClickHandler(this)" id="1000135">
    <polygon points="1392,1297 1313,1297 1313,1218 1392,1218 1392,1297" fill="transparent"
        onfocusin="evt.target.setAttribute('stroke', 'red')"
        onfocusout="evt.target.setAttribute('stroke','transparent')" />
    </a>
    <a onclick="javascript:pcsGlobal.canvasClickHandler(this)" id="1000135">
    <polygon points="1513,1358 1434,1358 1434,1279 1513,1279 1513,1358" fill="transparent"
        onfocusin="evt.target.setAttribute('stroke', 'red')"
        onfocusout="evt.target.setAttribute('stroke','transparent')" />
    </a>
    <a onclick="javascript:pcsGlobal.canvasClickHandler(this)" id="1000115">
    <polygon points="1105,1331 1026,1331 1026,1252 1105,1252 1105,1331" fill="transparent"
        onfocusin="evt.target.setAttribute('stroke', 'red')"
        onfocusout="evt.target.setAttribute('stroke','transparent')" />
    </a>
    <a onclick="javascript:pcsGlobal.canvasClickHandler(this)" id="1000115">
    <polygon points="1226,1400 1147,1400 1147,1321 1226,1321 1226,1400" fill="transparent"
        onfocusin="evt.target.setAttribute('stroke', 'red')"
        onfocusout="evt.target.setAttribute('stroke','transparent')" />
    </a>
    <a onclick="javascript:pcsGlobal.canvasClickHandler(this)" id="1000115">
    <polygon points="1235,1531 1156,1531 1156,1452 1235,1452 1235,1531" fill="transparent"
        onfocusin="evt.target.setAttribute('stroke', 'red')"
        onfocusout="evt.target.setAttribute('stroke','transparent')" />
    </a>
    <a onclick="javascript:pcsGlobal.canvasClickHandler(this)" id="1000115">
    <polygon points="1117,1477 1038,1477 1038,1398 1117,1398 1117,1477" fill="transparent"
        onfocusin="evt.target.setAttribute('stroke', 'red')"
        onfocusout="evt.target.setAttribute('stroke','transparent')" />
    </a>
    <a onclick="javascript:pcsGlobal.canvasClickHandler(this)" id="1000119">
    <polygon points="932,1573 853,1573 853,1494 932,1494 932,1573" fill="transparent"
        onfocusin="evt.target.setAttribute('stroke', 'red')"
        onfocusout="evt.target.setAttribute('stroke','transparent')" />
    </a>
    <a onclick="javascript:pcsGlobal.canvasClickHandler(this)" id="1000118">
    <polygon points="811,1650 732,1650 732,1571 811,1571 811,1650" fill="transparent"
        onfocusin="evt.target.setAttribute('stroke', 'red')"
        onfocusout="evt.target.setAttribute('stroke','transparent')" />
    </a>
    <a onclick="javascript:pcsGlobal.canvasClickHandler(this)" id="1000102">
    <polygon points="626,1758 547,1758 547,1679 626,1679 626,1758" fill="transparent"
        onfocusin="evt.target.setAttribute('stroke', 'red')"
        onfocusout="evt.target.setAttribute('stroke','transparent')" />
    </a>
    <a onclick="javascript:pcsGlobal.canvasClickHandler(this)" id="1000114">
    <polygon points="180,1907 101,1907 101,1828 180,1828 180,1907" fill="transparent"
        onfocusin="evt.target.setAttribute('stroke', 'red')"
        onfocusout="evt.target.setAttribute('stroke','transparent')" />
    </a>
    <a onclick="javascript:pcsGlobal.canvasClickHandler(this)" id="1000114">
    <polygon points="176,2000 97,2000 97,1921 176,1921 176,2000" fill="transparent"
        onfocusin="evt.target.setAttribute('stroke', 'red')"
        onfocusout="evt.target.setAttribute('stroke','transparent')" />
    </a>
    <a onclick="javascript:pcsGlobal.canvasClickHandler(this)" id="1000114">
    <polygon points="266,1942 187,1942 187,1863 266,1863 266,1942" fill="transparent"
        onfocusin="evt.target.setAttribute('stroke', 'red')"
        onfocusout="evt.target.setAttribute('stroke','transparent')" />
    </a>
    <a onclick="javascript:pcsGlobal.canvasClickHandler(this)" id="1000114">
    <polygon points="262,2050 184,2050 184,1971 262,1971 262,2050" fill="transparent"
        onfocusin="evt.target.setAttribute('stroke', 'red')"
        onfocusout="evt.target.setAttribute('stroke','transparent')" />
    </a>
    <a onclick="javascript:pcsGlobal.canvasClickHandler(this)" id="1000134">
    <polygon points="377,1808 298,1808 298,1729 377,1729 377,1808" fill="transparent"
        onfocusin="evt.target.setAttribute('stroke', 'red')"
        onfocusout="evt.target.setAttribute('stroke','transparent')" />
    </a>
    <a onclick="javascript:pcsGlobal.canvasClickHandler(this)" id="1000134">
    <polygon points="463,1846 384,1846 384,1767 463,1767 463,1846" fill="transparent"
        onfocusin="evt.target.setAttribute('stroke', 'red')"
        onfocusout="evt.target.setAttribute('stroke','transparent')" />
    </a>
    <a onclick="javascript:pcsGlobal.canvasClickHandler(this)" id="1000134">
    <polygon points="371,1896 292,1896 292,1817 371,1817 371,1896" fill="transparent"
        onfocusin="evt.target.setAttribute('stroke', 'red')"
        onfocusout="evt.target.setAttribute('stroke','transparent')" />
    </a>
    <a onclick="javascript:pcsGlobal.canvasClickHandler(this)" id="1000134">
    <polygon points="457,1938 378,1938 378,1859 457,1859 457,1938" fill="transparent"
        onfocusin="evt.target.setAttribute('stroke', 'red')"
        onfocusout="evt.target.setAttribute('stroke','transparent')" />
    </a></svg>