
    <svg version="1.1" xmlns="http://www.w3.org/2000/svg" xmlns:xlink="http://www.w3.org/1999/xlink" width="3600"
    height="2353">
    <image width="3600" height="2353"
        xlink:href="./1000300_1.png?domain=170uat202310091346&amp;workSpaceId=ws170uat202320231009142346"></image>
    
    <a onclick="javascript:pcsGlobal.canvasClickHandler(this)" id="1000114">
    <polygon points="3132,283 3049,283 3049,201 3132,201 3132,283" fill="transparent"
        onfocusin="evt.target.setAttribute('stroke', 'red')"
        onfocusout="evt.target.setAttribute('stroke','transparent')" />
    </a>
    <a onclick="javascript:pcsGlobal.canvasClickHandler(this)" id="1000114">
    <polygon points="3217,344 3135,344 3135,261 3217,261 3217,344" fill="transparent"
        onfocusin="evt.target.setAttribute('stroke', 'red')"
        onfocusout="evt.target.setAttribute('stroke','transparent')" />
    </a>
    <a onclick="javascript:pcsGlobal.canvasClickHandler(this)" id="1000114">
    <polygon points="3128,384 3045,384 3045,301 3128,301 3128,384" fill="transparent"
        onfocusin="evt.target.setAttribute('stroke', 'red')"
        onfocusout="evt.target.setAttribute('stroke','transparent')" />
    </a>
    <a onclick="javascript:pcsGlobal.canvasClickHandler(this)" id="1000114">
    <polygon points="3217,440 3135,440 3135,358 3217,358 3217,440" fill="transparent"
        onfocusin="evt.target.setAttribute('stroke', 'red')"
        onfocusout="evt.target.setAttribute('stroke','transparent')" />
    </a>
    <a onclick="javascript:pcsGlobal.canvasClickHandler(this)" id="1000134">
    <polygon points="2905,424 2822,424 2822,341 2905,341 2905,424" fill="transparent"
        onfocusin="evt.target.setAttribute('stroke', 'red')"
        onfocusout="evt.target.setAttribute('stroke','transparent')" />
    </a>
    <a onclick="javascript:pcsGlobal.canvasClickHandler(this)" id="1000134">
    <polygon points="2987,460 2905,460 2905,378 2987,378 2987,460" fill="transparent"
        onfocusin="evt.target.setAttribute('stroke', 'red')"
        onfocusout="evt.target.setAttribute('stroke','transparent')" />
    </a>
    <a onclick="javascript:pcsGlobal.canvasClickHandler(this)" id="1000134">
    <polygon points="2905,521 2822,521 2822,438 2905,438 2905,521" fill="transparent"
        onfocusin="evt.target.setAttribute('stroke', 'red')"
        onfocusout="evt.target.setAttribute('stroke','transparent')" />
    </a>
    <a onclick="javascript:pcsGlobal.canvasClickHandler(this)" id="1000134">
    <polygon points="3001,577 2918,577 2918,494 3001,494 3001,577" fill="transparent"
        onfocusin="evt.target.setAttribute('stroke', 'red')"
        onfocusout="evt.target.setAttribute('stroke','transparent')" />
    </a>
    <a onclick="javascript:pcsGlobal.canvasClickHandler(this)" id="1000102">
    <polygon points="2764,645 2681,645 2681,563 2764,563 2764,645" fill="transparent"
        onfocusin="evt.target.setAttribute('stroke', 'red')"
        onfocusout="evt.target.setAttribute('stroke','transparent')" />
    </a>
    <a onclick="javascript:pcsGlobal.canvasClickHandler(this)" id="1000118">
    <polygon points="2562,730 2479,730 2479,647 2562,647 2562,730" fill="transparent"
        onfocusin="evt.target.setAttribute('stroke', 'red')"
        onfocusout="evt.target.setAttribute('stroke','transparent')" />
    </a>
    <a onclick="javascript:pcsGlobal.canvasClickHandler(this)" id="1000119">
    <polygon points="2397,806 2314,806 2314,724 2397,724 2397,806" fill="transparent"
        onfocusin="evt.target.setAttribute('stroke', 'red')"
        onfocusout="evt.target.setAttribute('stroke','transparent')" />
    </a>
    <a onclick="javascript:pcsGlobal.canvasClickHandler(this)" id="1000115">
    <polygon points="2160,1084 2077,1084 2077,1001 2160,1001 2160,1084" fill="transparent"
        onfocusin="evt.target.setAttribute('stroke', 'red')"
        onfocusout="evt.target.setAttribute('stroke','transparent')" />
    </a>
    <a onclick="javascript:pcsGlobal.canvasClickHandler(this)" id="1000115">
    <polygon points="2167,955 2084,955 2084,872 2167,872 2167,955" fill="transparent"
        onfocusin="evt.target.setAttribute('stroke', 'red')"
        onfocusout="evt.target.setAttribute('stroke','transparent')" />
    </a>
    <a onclick="javascript:pcsGlobal.canvasClickHandler(this)" id="1000115">
    <polygon points="2026,1035 1943,1035 1943,953 2026,953 2026,1035" fill="transparent"
        onfocusin="evt.target.setAttribute('stroke', 'red')"
        onfocusout="evt.target.setAttribute('stroke','transparent')" />
    </a>
    <a onclick="javascript:pcsGlobal.canvasClickHandler(this)" id="1000115">
    <polygon points="2040,875 1957,875 1957,792 2040,792 2040,875" fill="transparent"
        onfocusin="evt.target.setAttribute('stroke', 'red')"
        onfocusout="evt.target.setAttribute('stroke','transparent')" />
    </a>
    <a onclick="javascript:pcsGlobal.canvasClickHandler(this)" id="1000111">
    <polygon points="2438,1349 2355,1349 2355,1266 2438,1266 2438,1349" fill="transparent"
        onfocusin="evt.target.setAttribute('stroke', 'red')"
        onfocusout="evt.target.setAttribute('stroke','transparent')" />
    </a>
    <a onclick="javascript:pcsGlobal.canvasClickHandler(this)" id="1000111">
    <polygon points="1978,340 1895,340 1895,257 1978,257 1978,340" fill="transparent"
        onfocusin="evt.target.setAttribute('stroke', 'red')"
        onfocusout="evt.target.setAttribute('stroke','transparent')" />
    </a>
    <a onclick="javascript:pcsGlobal.canvasClickHandler(this)" id="1000111">
    <polygon points="1480,734 1397,734 1397,651 1480,651 1480,734" fill="transparent"
        onfocusin="evt.target.setAttribute('stroke', 'red')"
        onfocusout="evt.target.setAttribute('stroke','transparent')" />
    </a>
    <a onclick="javascript:pcsGlobal.canvasClickHandler(this)" id="1000112">
    <polygon points="1992,609 1909,609 1909,526 1992,526 1992,609" fill="transparent"
        onfocusin="evt.target.setAttribute('stroke', 'red')"
        onfocusout="evt.target.setAttribute('stroke','transparent')" />
    </a>
    <a onclick="javascript:pcsGlobal.canvasClickHandler(this)" id="1000135">
    <polygon points="1727,1064 1644,1064 1644,981 1727,981 1727,1064" fill="transparent"
        onfocusin="evt.target.setAttribute('stroke', 'red')"
        onfocusout="evt.target.setAttribute('stroke','transparent')" />
    </a>
    <a onclick="javascript:pcsGlobal.canvasClickHandler(this)" id="1000135">
    <polygon points="1847,1136 1765,1136 1765,1053 1847,1053 1847,1136" fill="transparent"
        onfocusin="evt.target.setAttribute('stroke', 'red')"
        onfocusout="evt.target.setAttribute('stroke','transparent')" />
    </a>
    <a onclick="javascript:pcsGlobal.canvasClickHandler(this)" id="1000135">
    <polygon points="1847,1261 1765,1261 1765,1178 1847,1178 1847,1261" fill="transparent"
        onfocusin="evt.target.setAttribute('stroke', 'red')"
        onfocusout="evt.target.setAttribute('stroke','transparent')" />
    </a>
    <a onclick="javascript:pcsGlobal.canvasClickHandler(this)" id="1000135">
    <polygon points="1737,1192 1655,1192 1655,1110 1737,1110 1737,1192" fill="transparent"
        onfocusin="evt.target.setAttribute('stroke', 'red')"
        onfocusout="evt.target.setAttribute('stroke','transparent')" />
    </a>
    <a onclick="javascript:pcsGlobal.canvasClickHandler(this)" id="1000101">
    <polygon points="1593,1309 1510,1309 1510,1226 1593,1226 1593,1309" fill="transparent"
        onfocusin="evt.target.setAttribute('stroke', 'red')"
        onfocusout="evt.target.setAttribute('stroke','transparent')" />
    </a>
    <a onclick="javascript:pcsGlobal.canvasClickHandler(this)" id="1000114">
    <polygon points="1250,1377 1167,1377 1167,1295 1250,1295 1250,1377" fill="transparent"
        onfocusin="evt.target.setAttribute('stroke', 'red')"
        onfocusout="evt.target.setAttribute('stroke','transparent')" />
    </a>
    <a onclick="javascript:pcsGlobal.canvasClickHandler(this)" id="1000114">
    <polygon points="1329,1430 1246,1430 1246,1347 1329,1347 1329,1430" fill="transparent"
        onfocusin="evt.target.setAttribute('stroke', 'red')"
        onfocusout="evt.target.setAttribute('stroke','transparent')" />
    </a>
    <a onclick="javascript:pcsGlobal.canvasClickHandler(this)" id="1000114">
    <polygon points="1226,1466 1143,1466 1143,1383 1226,1383 1226,1466" fill="transparent"
        onfocusin="evt.target.setAttribute('stroke', 'red')"
        onfocusout="evt.target.setAttribute('stroke','transparent')" />
    </a>
    <a onclick="javascript:pcsGlobal.canvasClickHandler(this)" id="1000114">
    <polygon points="1325,1518 1243,1518 1243,1435 1325,1435 1325,1518" fill="transparent"
        onfocusin="evt.target.setAttribute('stroke', 'red')"
        onfocusout="evt.target.setAttribute('stroke','transparent')" />
    </a>
    <a onclick="javascript:pcsGlobal.canvasClickHandler(this)" id="1000134">
    <polygon points="1030,1502 947,1502 947,1419 1030,1419 1030,1502" fill="transparent"
        onfocusin="evt.target.setAttribute('stroke', 'red')"
        onfocusout="evt.target.setAttribute('stroke','transparent')" />
    </a>
    <a onclick="javascript:pcsGlobal.canvasClickHandler(this)" id="1000134">
    <polygon points="1106,1558 1023,1558 1023,1476 1106,1476 1106,1558" fill="transparent"
        onfocusin="evt.target.setAttribute('stroke', 'red')"
        onfocusout="evt.target.setAttribute('stroke','transparent')" />
    </a>
    <a onclick="javascript:pcsGlobal.canvasClickHandler(this)" id="1000134">
    <polygon points="1030,1602 947,1602 947,1520 1030,1520 1030,1602" fill="transparent"
        onfocusin="evt.target.setAttribute('stroke', 'red')"
        onfocusout="evt.target.setAttribute('stroke','transparent')" />
    </a>
    <a onclick="javascript:pcsGlobal.canvasClickHandler(this)" id="1000134">
    <polygon points="1106,1643 1023,1643 1023,1560 1106,1560 1106,1643" fill="transparent"
        onfocusin="evt.target.setAttribute('stroke', 'red')"
        onfocusout="evt.target.setAttribute('stroke','transparent')" />
    </a>
    <a onclick="javascript:pcsGlobal.canvasClickHandler(this)" id="1000130">
    <polygon points="862,1755 779,1755 779,1673 862,1673 862,1755" fill="transparent"
        onfocusin="evt.target.setAttribute('stroke', 'red')"
        onfocusout="evt.target.setAttribute('stroke','transparent')" />
    </a>
    <a onclick="javascript:pcsGlobal.canvasClickHandler(this)" id="1000129">
    <polygon points="429,1968 346,1968 346,1886 429,1886 429,1968" fill="transparent"
        onfocusin="evt.target.setAttribute('stroke', 'red')"
        onfocusout="evt.target.setAttribute('stroke','transparent')" />
    </a></svg>